{"title":"Better Late Than Never - S01E02","uid":16043078,"size":1018458147,"categoryP":"video","categoryS":"tv_shows","magnet":"?xt=urn:btih:c3e9c9d9d1e83e26e2ec01aa464b70f779995715&amp;dn=Better+Late+Than+Never+-+S01E02&amp;tr=udp%3A%2F%2Ftracker.leechers-paradise.org%3A6969&amp;tr=udp%3A%2F%2Fzer0day.ch%3A1337&amp;tr=udp%3A%2F%2Fopen.demonii.com%3A1337&amp;tr=udp%3A%2F%2Ftracker.coppersurfer.tk%3A6969&amp;tr=udp%3A%2F%2Fexodus.desync.com%3A6969","seeders":5,"leechers":3,"uploader":"Bullrout","files":1,"time":1476534209,"description":"Better Late Than Never - S01E02 - Kyoto &amp; Hong Kong-Less Talky, More Sake\r\n\r\nHenry Winkler, William Shatner, Terry Bradshaw and George Foreman visit a geisha house and a samurai warrior school, in Hong Kong the gang stays at one of the top hotels in the world, rents a yacht, and visits a Chinese medicine shop.\r\n\r\nComplete name                            : Better Late Than Never - S01E02 - Kyoto &amp; Hong Kong-Less Talky, More Sake.mkv\r\nFormat                                   : Matroska\r\nFormat version                           : Version 4 / Version 2\r\nFile size                                : 971 MiB\r\nDuration                                 : 41 min 19 s\r\nOverall bit rate mode                    : Variable\r\nOverall bit rate                         : 3 286 kb/s\r\nEncoded date                             : UTC 2016-10-14 03:04:27\r\nWriting application                      : mkvmerge v9.4.2 ('So High') 64bit\r\nWriting library                          : libebml v1.3.4 + libmatroska v1.4.5\r\n\r\nVideo\r\nID                                       : 2\r\nFormat                                   : AVC\r\nFormat/Info                              : Advanced Video Codec\r\nFormat profile                           :   \r\nFormat settings, CABAC                   : Yes\r\nFormat settings, ReFrames                : 3 frames\r\nCodec ID                                 : V_MPEG4/ISO/AVC\r\nDuration                                 : 41 min 19 s\r\nBit rate mode                            : Variable\r\nBit rate                                 : 2 900 kb/s\r\nMaximum bit rate                         : 3 000 kb/s\r\nWidth                                    : 1 280 pixels\r\nHeight                                   : 720 pixels\r\nDisplay aspect ratio                     : 16:9\r\nFrame rate mode                          : Constant\r\nFrame rate                               : 25.000 FPS\r\nStandard                                 : PAL\r\nColor space                              : YUV\r\nChroma subsampling                       : 4:2:0\r\nBit depth                                : 8 bits\r\nScan type                                : Progressive\r\nBits/(Pixel*Frame)                       : 0.126\r\nStream size                              : 857 MiB (88%)\r\nWriting library                          : x264 core 112\r\nDefault                                  : Yes\r\nForced                                   : No\r\nColor range                              : Limited\r\nColor primaries                          : BT.709\r\nTransfer characteristics                 : BT.709\r\nMatrix coefficients                      : BT.709\r\n\r\nAudio\r\nID                                       : 1\r\nFormat                                   : AC-3\r\nFormat/Info                              : Audio Coding 3\r\nMode extension                           : CM (complete main)\r\nFormat settings, Endianness              : Big\r\nCodec ID                                 : A_AC3\r\nDuration                                 : 41 min 19 s\r\nBit rate mode                            : Constant\r\nBit rate                                 : 384 kb/s\r\nChannel(s)                               : 6 channels\r\nChannel positions                        : Front: L C R, Side: L R, LFE\r\nSampling rate                            : 48.0 kHz\r\nFrame rate                               : 31.250 FPS (1536 spf)\r\nCompression mode                         : Lossy\r\nStream size                              : 113 MiB (12%)\r\nDefault                                  : Yes\r\nForced                                   : No","torrent":{"xt":"urn:btih:c3e9c9d9d1e83e26e2ec01aa464b70f779995715","amp;dn":"Better+Late+Than+Never+-+S01E02","amp;tr":["udp%3A%2F%2Ftracker.leechers-paradise.org%3A6969","udp%3A%2F%2Fzer0day.ch%3A1337","udp%3A%2F%2Fopen.demonii.com%3A1337","udp%3A%2F%2Ftracker.coppersurfer.tk%3A6969","udp%3A%2F%2Fexodus.desync.com%3A6969"],"infoHash":"c3e9c9d9d1e83e26e2ec01aa464b70f779995715","infoHashBuffer":{"type":"Buffer","data":[195,233,201,217,209,232,62,38,226,236,1,170,70,75,112,247,121,153,87,21]},"announce":[],"urlList":[]}}